<svg width="1500" height="299" viewBox="0 0 1500 299" fill="none" xmlns="http://www.w3.org/2000/svg">
<rect width="1500" height="299" fill="#D9D9D9"/>
<path d="M672.557 132.764V123.636H715.562V132.764H699.531V176H688.588V132.764H672.557ZM722.44 176V136.727H733.332V176H722.44ZM727.912 131.665C726.293 131.665 724.903 131.128 723.744 130.054C722.602 128.963 722.031 127.659 722.031 126.142C722.031 124.642 722.602 123.355 723.744 122.281C724.903 121.19 726.293 120.645 727.912 120.645C729.531 120.645 730.912 121.19 732.054 122.281C733.213 123.355 733.793 124.642 733.793 126.142C733.793 127.659 733.213 128.963 732.054 130.054C730.912 131.128 729.531 131.665 727.912 131.665ZM762.947 136.727V144.909H739.296V136.727H762.947ZM744.665 127.318H755.558V163.932C755.558 164.937 755.711 165.722 756.018 166.284C756.325 166.83 756.751 167.213 757.296 167.435C757.859 167.656 758.506 167.767 759.239 167.767C759.751 167.767 760.262 167.724 760.773 167.639C761.285 167.537 761.677 167.46 761.95 167.409L763.663 175.514C763.117 175.685 762.35 175.881 761.362 176.102C760.373 176.341 759.171 176.486 757.756 176.537C755.131 176.639 752.83 176.29 750.853 175.489C748.893 174.687 747.367 173.443 746.276 171.756C745.185 170.068 744.648 167.937 744.665 165.364V127.318ZM781.778 123.636V176H770.886V123.636H781.778ZM808.401 176.767C804.361 176.767 800.884 175.949 797.969 174.312C795.071 172.659 792.838 170.324 791.27 167.307C789.702 164.273 788.918 160.685 788.918 156.543C788.918 152.503 789.702 148.957 791.27 145.906C792.838 142.855 795.045 140.477 797.892 138.773C800.756 137.068 804.114 136.216 807.966 136.216C810.557 136.216 812.969 136.634 815.202 137.469C817.452 138.287 819.412 139.523 821.082 141.176C822.77 142.83 824.082 144.909 825.02 147.415C825.957 149.903 826.426 152.818 826.426 156.159V159.151H793.264V152.401H816.173C816.173 150.832 815.832 149.443 815.151 148.233C814.469 147.023 813.523 146.077 812.312 145.395C811.119 144.696 809.73 144.347 808.145 144.347C806.491 144.347 805.026 144.73 803.747 145.497C802.486 146.247 801.497 147.261 800.781 148.54C800.065 149.801 799.699 151.207 799.682 152.759V159.176C799.682 161.119 800.04 162.798 800.756 164.213C801.489 165.628 802.52 166.719 803.849 167.486C805.179 168.253 806.756 168.636 808.58 168.636C809.79 168.636 810.898 168.466 811.903 168.125C812.909 167.784 813.77 167.273 814.486 166.591C815.202 165.909 815.747 165.074 816.122 164.085L826.196 164.75C825.685 167.17 824.636 169.284 823.051 171.091C821.483 172.881 819.455 174.278 816.966 175.284C814.494 176.273 811.639 176.767 808.401 176.767Z" fill="black"/>
</svg>
